<?xml version="1.0" standalone="no"?><!DOCTYPE svg PUBLIC "-//W3C//DTD SVG 1.1//EN" "http://www.w3.org/Graphics/SVG/1.1/DTD/svg11.dtd"><svg t="1700549666220" class="icon" viewBox="0 0 1024 1024" version="1.1" xmlns="http://www.w3.org/2000/svg" p-id="5561" xmlns:xlink="http://www.w3.org/1999/xlink" width="64" height="64"><path d="M802.9 289.4c-28.7 0-56 5.9-80.8 16.4C705.8 205 618.4 128 512.9 128c-92.4 0-171 59.2-200 141.7-24.7-10.1-51.7-15.7-80.1-15.7-117.1 0-211.9 94.9-211.9 211.9 0 117.1 94.9 211.9 211.9 211.9 5.3 0 10.6-0.2 15.8-0.6v0.6H899.7c65.1-34.7 109.4-103.2 109.4-182.2 0.1-113.8-92.3-206.2-206.2-206.2zM515 762.8c-7.9 0-78.3 87.9-78.3 131.1 0 43.3 35.1 76.7 78.3 76.7 43.3 0 78.3-33.5 78.3-76.7 0.1-43.2-69.5-131.1-78.3-131.1z" fill="#9FDAFF" p-id="5562"></path></svg>