<?xml version="1.0" standalone="no"?><!DOCTYPE svg PUBLIC "-//W3C//DTD SVG 1.1//EN" "http://www.w3.org/Graphics/SVG/1.1/DTD/svg11.dtd"><svg t="1733303610844" class="icon" viewBox="0 0 1024 1024" version="1.1" xmlns="http://www.w3.org/2000/svg" p-id="2352" xmlns:xlink="http://www.w3.org/1999/xlink" width="64" height="64"><path d="M60.8 1024c-33.6 0-60.8-27.2-60.8-60.8v-243.2c0-33.6 27.2-60.8 60.8-60.8s60.8 27.2 60.8 60.8v243.2c0 33.6-27.2 60.8-60.8 60.8zM361.6 1024c-33.6 0-60.8-27.2-60.8-60.8v-473.6c0-33.6 27.2-60.8 60.8-60.8s60.8 27.2 60.8 60.8v473.6c0 33.6-27.2 60.8-60.8 60.8zM662.4 1024c-33.6 0-60.8-27.2-60.8-60.8v-678.4c0-33.6 27.2-60.8 60.8-60.8s60.8 27.2 60.8 60.8v678.4c0 33.6-27.2 60.8-60.8 60.8zM963.2 1024c-33.6 0-60.8-27.2-60.8-60.8V60.8c0-33.6 27.2-60.8 60.8-60.8s60.8 27.2 60.8 60.8v902.4c0 33.6-27.2 60.8-60.8 60.8z" fill="#1296db" p-id="2353"></path></svg>