<?xml version="1.0" standalone="no"?><!DOCTYPE svg PUBLIC "-//W3C//DTD SVG 1.1//EN" "http://www.w3.org/Graphics/SVG/1.1/DTD/svg11.dtd"><svg t="1697597781821" class="icon" viewBox="0 0 1024 1024" version="1.1" xmlns="http://www.w3.org/2000/svg" p-id="5521" xmlns:xlink="http://www.w3.org/1999/xlink" width="200" height="200"><path d="M338.444488 999.02439c-15.384976 0-27.87278-12.487805-27.872781-27.897756v-233.971512a23.95161 23.95161 0 0 0-23.926634-23.926634h-233.771707a27.897756 27.897756 0 0 1 0-55.820488h233.796683c43.957073 0 79.672195 35.765073 79.672195 79.747122v233.971512c0 15.409951-12.487805 27.897756-27.872781 27.897756z m347.111024 0c15.384976 0 27.897756-12.487805 27.897756-27.897756v-233.971512c0-13.212098 10.714537-23.926634 23.901659-23.926634h233.771707a27.897756 27.897756 0 0 0 0-55.820488h-233.771707a79.797073 79.797073 0 0 0-79.697171 79.747122v233.971512c0 15.409951 12.487805 27.897756 27.897756 27.897756z m50.900293-631.358439a79.797073 79.797073 0 0 1-79.672195-79.422439l-0.899122-233.971512a27.922732 27.922732 0 0 1 27.797853-28.022634h0.099903c15.36 0 27.822829 12.412878 27.87278 27.797854l0.899122 233.971512a23.95161 23.95161 0 0 0 23.901659 23.826731h0.074927l233.796683-0.874146a27.87278 27.87278 0 1 1 0.22478 55.795512l-233.771707 0.899122h-0.324683z m-683.40761 0a27.897756 27.897756 0 0 1-0.099902-55.795512l233.771707-0.899122a23.801756 23.801756 0 0 0 23.826732-24.026537L309.697561 52.973268a27.897756 27.897756 0 0 1 55.745561-0.199805l0.899122 233.971513a79.272585 79.272585 0 0 1-23.127415 56.444878 79.172683 79.172683 0 0 1-56.270049 23.576975l-233.771707 0.899122h-0.124878z" fill="#2586F3" p-id="5522"></path><path d="M697.818537 540.372293a27.897756 27.897756 0 0 1-0.024976-55.820488l272.433951-0.249756h0.049951a27.897756 27.897756 0 0 1 0 55.795512l-272.433951 0.249756h-0.024975zM53.947317 540.971707a27.897756 27.897756 0 0 1-0.024976-55.795512l267.488781-0.249756h0.024976a27.87278 27.87278 0 0 1 0.024975 55.795512l-267.48878 0.249756h-0.049952zM511.900098 353.155122c-15.384976 0-27.87278-12.487805-27.872781-27.922732v-17.482927c-0.024976-15.409951 12.437854-27.922732 27.847805-27.947707h0.024976c15.384976 0 27.87278 12.487805 27.897756 27.897756v17.482927c0 15.434927-12.437854 27.947707-27.847805 27.947707h-0.049951zM511.800195 226.179122c-15.384976 0-27.87278-12.487805-27.897756-27.872781v-17.482926c-0.024976-15.434927 12.437854-27.972683 27.847805-27.972683h0.024976c15.384976 0 27.87278 12.487805 27.87278 27.897756l0.024976 17.507902c0 15.409951-12.462829 27.922732-27.872781 27.922732zM511.675317 99.253073c-15.409951 0-27.897756-12.487805-27.897756-27.897756V54.197073c-0.024976-15.409951 12.437854-27.897756 27.847805-27.922732h0.024975c15.384976 0 27.87278 12.487805 27.897757 27.897757v17.183219c0 15.409951-12.437854 27.897756-27.847805 27.922732h-0.024976zM512.549463 999.02439c-15.409951 0-27.897756-12.487805-27.897756-27.87278v-17.507903c-0.024976-15.409951 12.437854-27.922732 27.847805-27.947707h0.024976c15.384976 0 27.87278 12.487805 27.87278 27.897756l0.024976 17.482927C540.472195 986.536585 527.98439 999.02439 512.574439 999.02439h-0.024976zM512.424585 872.098341c-15.384976 0-27.87278-12.487805-27.897756-27.897756v-17.482926c-0.024976-15.434927 12.437854-27.947707 27.847805-27.972683h0.024976c15.384976 0 27.897756 12.487805 27.897756 27.897756v17.507902c0.024976 15.409951-12.437854 27.922732-27.847805 27.922732h-0.024976zM512.299707 745.147317c-15.384976 0-27.87278-12.487805-27.87278-27.897756l-0.024976-15.36a27.897756 27.897756 0 0 1 55.770537-0.049951v15.384975c0.024976 15.409951-12.437854 27.897756-27.847805 27.922732h-0.024976z" fill="#FB9D5B" p-id="5523"></path></svg>