<?xml version="1.0" standalone="no"?><!DOCTYPE svg PUBLIC "-//W3C//DTD SVG 1.1//EN" "http://www.w3.org/Graphics/SVG/1.1/DTD/svg11.dtd"><svg t="1713174910337" class="icon" viewBox="0 0 1024 1024" version="1.1" xmlns="http://www.w3.org/2000/svg" p-id="14648" xmlns:xlink="http://www.w3.org/1999/xlink" width="64" height="64"><path d="M523.264 16.896h4.096-4.096z m150.528 26.112c-28.672-11.776-97.28-12.288-147.968-12.8-50.688 0.512-119.296 0.512-147.968 12.288-29.184 11.776-42.496 10.24-48.128 39.424l-28.16 162.816-0.512 184.32h37.376v35.328c0 43.008 61.952 43.008 61.952 0v-35.328l248.832 0.512v35.328c0 43.008 61.952 43.008 61.952 0v-35.328h37.376l0.512-184.32L721.92 82.432c-6.144-29.184-19.456-27.648-48.128-39.424zM340.48 239.104l16.896-117.76c2.56-14.336 7.168-23.552 26.624-23.552l282.624 0.512c18.944 0 24.064 9.728 26.624 24.064l16.896 117.76c1.536 11.264-2.048 22.528-17.92 22.528L358.4 261.632c-15.872 0-19.456-11.264-17.92-22.528z m68.608 113.152c0 6.656-5.632 12.288-12.8 12.288h-51.2c-7.168 0-12.8-5.632-12.8-12.288v-20.992c0-6.656 5.632-12.288 12.8-12.288h51.2c7.168 0 12.8 5.632 12.8 12.288v20.992z m308.224 0.512c0 6.656-5.632 12.288-12.8 12.288h-51.2c-7.168 0-12.8-5.632-12.8-12.288v-20.992c0-6.656 5.632-12.288 12.8-12.288h51.2c7.168 0 12.8 5.632 12.8 12.288v20.992zM150.016 1018.88l-75.264 2.048 33.792-345.6 62.976-2.048-21.504 345.6z m-2.56-737.792l45.056-1.536-17.92 277.504-52.736 1.536 25.6-277.504zM179.2 4.096l27.136-1.024-12.288 190.464-32.256 1.536L179.2 4.096z m695.296 1015.296l-11.264-344.576h62.976l23.04 344.576h-74.752z m22.016-738.304h-41.984l8.704 276.992h51.2l-17.92-276.992zM875.008 4.608h-26.624l6.656 190.464h31.744L875.008 4.608zM324.096 921.6v36.864c0 12.8 18.432 23.552 41.472 23.552s41.472-10.24 41.472-23.552V921.6h-82.944z m291.328 0v36.864c0 12.8 18.432 23.552 41.472 23.552s41.472-10.24 41.472-23.552V921.6h-82.944z" p-id="14649" fill="#1296db"></path><path d="M714.752 710.656l-44.544-114.688-0.512-1.024c-12.288-27.136-37.376-43.008-68.608-43.008H417.792c-31.744 0-56.832 15.36-68.608 43.008v0.512L303.616 711.68c-29.696 5.632-50.688 31.232-50.688 61.44v98.816c0 34.304 27.648 62.464 62.464 62.464h394.24c34.304 0 62.464-27.648 62.464-62.464V773.12c-1.024-32.768-25.088-59.392-57.344-62.464z m-330.24-99.84c5.632-12.8 16.896-19.456 32.768-19.456h183.296c15.872 0 27.136 6.656 32.768 19.456l38.912 99.84H345.6l38.912-99.84z m-17.92 248.832c-18.944 0-34.816-15.36-34.816-34.816 0-18.944 15.36-34.816 34.816-34.816 18.944 0 34.304 15.36 34.816 34.304-0.512 19.968-15.872 35.328-34.816 35.328z m288.768 0c-18.944 0-34.816-15.36-34.816-34.816 0-18.944 15.36-34.816 34.816-34.816 18.944 0 34.304 15.36 34.816 34.304-0.512 19.968-15.872 35.328-34.816 35.328z" p-id="14650" fill="#1296db"></path></svg>