<?xml version="1.0" standalone="no"?><!DOCTYPE svg PUBLIC "-//W3C//DTD SVG 1.1//EN" "http://www.w3.org/Graphics/SVG/1.1/DTD/svg11.dtd"><svg t="1700549760017" class="icon" viewBox="0 0 1024 1024" version="1.1" xmlns="http://www.w3.org/2000/svg" p-id="7611" xmlns:xlink="http://www.w3.org/1999/xlink" width="64" height="64"><path d="M242.4 749.6v0.6h661.3c66.1-35.2 111.1-104.8 111.1-185 0-115.7-93.8-209.5-209.5-209.5-29.1 0-56.8 5.9-82 16.7C706.8 270 617.9 191.8 510.9 191.8c-93.9 0-173.7 60.1-203.1 143.9-25.1-10.3-52.6-15.9-81.3-15.9-118.9 0-215.2 96.4-215.2 215.2 0 118.9 96.4 215.2 215.2 215.2 5.3 0 10.6-0.2 15.9-0.6z" fill="#9FDAFF" p-id="7612"></path></svg>