<?xml version="1.0" standalone="no"?><!DOCTYPE svg PUBLIC "-//W3C//DTD SVG 1.1//EN" "http://www.w3.org/Graphics/SVG/1.1/DTD/svg11.dtd"><svg t="1713173805436" class="icon" viewBox="0 0 1024 1024" version="1.1" xmlns="http://www.w3.org/2000/svg" p-id="6258" xmlns:xlink="http://www.w3.org/1999/xlink" width="64" height="64"><path d="M0 0h1024v1024H0z" fill="#000000" fill-opacity="0" p-id="6259"></path><path d="M835.549867 406.357333h-63.931734c-2.952533 0.034133-5.819733 0.785067-8.362666 2.167467l-28.808534-82.773333C725.230933 278.698667 690.449067 256 647.765333 256h-270.848c-49.032533 0-78.7968 30.481067-86.664533 69.717333L261.290667 408.746667a18.176 18.176 0 0 0-8.874667-2.389334h-63.9488a18.432 18.432 0 0 0-12.629333 5.000534 16.418133 16.418133 0 0 0-5.188267 11.963733v14.7456c-0.034133 9.3184 7.936 16.913067 17.8176 16.964267l24.234667 3.9424c-7.68 14.250667-12.032 30.549333-12.032 49.493333l-8.942934 97.672533c0 2.901333 0.2048 5.768533 0.580267 8.635734a28.2624 28.2624 0 0 0-0.580267 5.512533v117.435733c-0.0512 8.004267 3.2768 15.684267 9.250134 21.3504 5.956267 5.6832 14.062933 8.891733 22.528 8.925867h48.503466c8.465067-0.034133 16.554667-3.242667 22.528-8.925867 5.9392-5.6832 9.2672-13.3632 9.216-21.333333v-37.768533h417.041067v37.751466c-0.0512 8.004267 3.2768 15.684267 9.250133 21.3504 5.956267 5.6832 14.062933 8.891733 22.528 8.925867h48.520534c8.465067-0.034133 16.554667-3.242667 22.528-8.925867 5.973333-5.666133 9.284267-13.346133 9.250133-21.333333v-117.486933a28.4672 28.4672 0 0 0-0.597333-5.512534c0.375467-2.850133 0.5632-5.7344 0.597333-8.618666l-8.994133-97.655467c0-19.012267-4.352-35.310933-12.049067-49.6128l23.722667-3.822933c9.864533-0.0512 17.8176-7.645867 17.7664-16.964267v-14.7456a16.384 16.384 0 0 0-5.154134-11.963733 18.3808 18.3808 0 0 0-12.629333-5.000534z m-520.6016-18.602666l20.7872-56.832 0.3072-1.314134c2.048-11.485867 6.690133-13.5168 13.482666-22.408533h325.393067c6.894933 9.130667 11.178667 11.434667 13.073067 22.272l21.077333 58.231467L716.8 419.328C715.076267 442.538667 687.957333 460.8 665.3952 460.8H358.638933C336.042667 460.8 308.906667 442.5216 307.2 419.345067l7.748267-31.607467zM315.733333 631.466667a42.666667 42.666667 0 1 1 0-85.333334 42.666667 42.666667 0 0 1 0 85.333334zM597.333333 600.2176c0.017067 3.754667-1.536 7.338667-4.352 10.018133a15.4624 15.4624 0 0 1-10.615466 4.164267h-140.8c-8.277333-0.0512-14.933333-6.4-14.8992-14.1824v-39.936c0-3.754667 1.553067-7.338667 4.352-9.984a15.445333 15.445333 0 0 1 10.581333-4.164267h140.8c8.277333 0.034133 14.9504 6.365867 14.933333 14.148267v39.936zM691.2 631.466667a42.666667 42.666667 0 1 1 0-85.3504 42.666667 42.666667 0 0 1 0 85.3504z" fill="#4B92E3" p-id="6260"></path></svg>