<?xml version="1.0" standalone="no"?><!DOCTYPE svg PUBLIC "-//W3C//DTD SVG 1.1//EN" "http://www.w3.org/Graphics/SVG/1.1/DTD/svg11.dtd"><svg t="1741084378625" class="icon" viewBox="0 0 1024 1024" version="1.1" xmlns="http://www.w3.org/2000/svg" p-id="3739" width="64" height="64" xmlns:xlink="http://www.w3.org/1999/xlink"><path d="M512 512m-512 0a512 512 0 1 0 1024 0 512 512 0 1 0-1024 0Z" fill="#FFFFFF" p-id="3740"></path><path d="M529.088 64a209.088 209.088 0 0 1 209.024 209.088v477.824a209.088 209.088 0 1 1-418.112 0V273.088A209.088 209.088 0 0 1 529.088 64z" fill="#333333" p-id="3741"></path><path d="M529.088 840.512a89.6 89.6 0 1 0 0-179.2 89.6 89.6 0 0 0 0 179.2z" fill="#2BAE41" p-id="3742"></path><path d="M529.088 601.6a89.6 89.6 0 1 0 0-179.2 89.6 89.6 0 0 0 0 179.2z" fill="#F7B500" p-id="3743"></path><path d="M529.088 362.688a89.6 89.6 0 1 0 0-179.2 89.6 89.6 0 0 0 0 179.2z" fill="#FF3C3C" p-id="3744"></path></svg>